<svg width="24" height="24" viewBox="0 0 24 24" fill="none" xmlns="http://www.w3.org/2000/svg">
<g clip-path="url(#clip0_2368_974)">
<path d="M6 19L3.7 21.3C3.38334 21.6167 3.02067 21.6877 2.612 21.513C2.20333 21.3383 1.99933 21.0257 2 20.575V5C2 4.45 2.196 3.97933 2.588 3.588C2.98 3.19667 3.45067 3.00067 4 3H20C20.55 3 21.021 3.196 21.413 3.588C21.805 3.98 22.0007 4.45067 22 5V17C22 17.55 21.8043 18.021 21.413 18.413C21.0217 18.805 20.5507 19.0007 20 19H6ZM5.15 17H20V5H4V18.125L5.15 17ZM7 15H13C13.2833 15 13.521 14.904 13.713 14.712C13.905 14.52 14.0007 14.2827 14 14C13.9993 13.7173 13.9033 13.48 13.712 13.288C13.5207 13.096 13.2833 13 13 13H7C6.71667 13 6.47933 13.096 6.288 13.288C6.09667 13.48 6.00067 13.7173 6 14C5.99933 14.2827 6.09534 14.5203 6.288 14.713C6.48067 14.9057 6.718 15.0013 7 15ZM7 12H17C17.2833 12 17.521 11.904 17.713 11.712C17.905 11.52 18.0007 11.2827 18 11C17.9993 10.7173 17.9033 10.48 17.712 10.288C17.5207 10.096 17.2833 10 17 10H7C6.71667 10 6.47933 10.096 6.288 10.288C6.09667 10.48 6.00067 10.7173 6 11C5.99933 11.2827 6.09534 11.5203 6.288 11.713C6.48067 11.9057 6.718 12.0013 7 12ZM7 9H17C17.2833 9 17.521 8.904 17.713 8.712C17.905 8.52 18.0007 8.28267 18 8C17.9993 7.71733 17.9033 7.48 17.712 7.288C17.5207 7.096 17.2833 7 17 7H7C6.71667 7 6.47933 7.096 6.288 7.288C6.09667 7.48 6.00067 7.71733 6 8C5.99933 8.28267 6.09534 8.52033 6.288 8.713C6.48067 8.90567 6.718 9.00133 7 9Z" fill="white"/>
</g>
<defs>
<clipPath id="clip0_2368_974">
<rect width="24" height="24" fill="white"/>
</clipPath>
</defs>
</svg>
