<svg width="21" height="21" viewBox="0 0 21 21" fill="none" xmlns="http://www.w3.org/2000/svg">
<path d="M7.87499 14.175L4.81249 11.1125C4.73241 11.0314 4.63703 10.9671 4.53189 10.9231C4.42675 10.8792 4.31394 10.8566 4.19999 10.8566C4.08604 10.8566 3.97323 10.8792 3.86809 10.9231C3.76295 10.9671 3.66757 11.0314 3.58749 11.1125C3.50643 11.1926 3.44207 11.2879 3.39815 11.3931C3.35422 11.4982 3.3316 11.611 3.3316 11.725C3.3316 11.8389 3.35422 11.9517 3.39815 12.0569C3.44207 12.162 3.50643 12.2574 3.58749 12.3375L7.25374 16.0037C7.59499 16.345 8.14624 16.345 8.48749 16.0037L17.7625 6.73748C17.8435 6.65739 17.9079 6.56202 17.9518 6.45688C17.9958 6.35174 18.0184 6.23892 18.0184 6.12498C18.0184 6.01103 17.9958 5.89822 17.9518 5.79308C17.9079 5.68793 17.8435 5.59256 17.7625 5.51248C17.6824 5.43142 17.587 5.36706 17.4819 5.32313C17.3767 5.27921 17.2639 5.25659 17.15 5.25659C17.036 5.25659 16.9232 5.27921 16.8181 5.32313C16.7129 5.36706 16.6176 5.43142 16.5375 5.51248L7.87499 14.175Z" fill="white"/>
</svg>
