<svg width="24" height="25" viewBox="0 0 24 25" fill="none" xmlns="http://www.w3.org/2000/svg">
<path d="M23.25 10.5007L12.273 21.4787C11.0072 22.7446 9.29026 23.4558 7.50004 23.4558C5.70982 23.4558 3.99292 22.7446 2.72704 21.4787C1.46116 20.2129 0.75 18.496 0.75 16.7057C0.75 14.9155 1.46116 13.1986 2.72704 11.9327L11.743 2.91774C12.1582 2.48795 12.6547 2.14513 13.2037 1.90929C13.7527 1.67345 14.3432 1.54931 14.9407 1.54412C15.5382 1.53892 16.1308 1.65278 16.6838 1.87904C17.2369 2.10531 17.7393 2.43945 18.1618 2.86196C18.5843 3.28448 18.9185 3.78692 19.1447 4.33995C19.371 4.89298 19.4849 5.48554 19.4797 6.08305C19.4745 6.68055 19.3503 7.27104 19.1145 7.82006C18.8787 8.36908 18.5358 8.86563 18.106 9.28074L9.09104 18.3007C8.66675 18.7107 8.09843 18.9375 7.50849 18.9325C6.91854 18.9275 6.35418 18.6909 5.93694 18.2738C5.51971 17.8567 5.28299 17.2924 5.27777 16.7025C5.27255 16.1126 5.49925 15.5442 5.90904 15.1197L14.925 6.10074" stroke="white" stroke-width="1.5" stroke-linecap="round" stroke-linejoin="round"/>
</svg>
