<svg width="24" height="22" viewBox="0 0 24 22" fill="none" xmlns="http://www.w3.org/2000/svg">
<path d="M6 17L3.7 19.3C3.38334 19.6167 3.02067 19.6877 2.612 19.513C2.20333 19.3383 1.99933 19.0257 2 18.575V3C2 2.45 2.196 1.97933 2.588 1.588C2.98 1.19667 3.45067 1.00067 4 1H20C20.55 1 21.021 1.196 21.413 1.588C21.805 1.98 22.0007 2.45067 22 3V15C22 15.55 21.8043 16.021 21.413 16.413C21.0217 16.805 20.5507 17.0007 20 17H6ZM5.15 15H20V3H4V16.125L5.15 15ZM7 13H13C13.2833 13 13.521 12.904 13.713 12.712C13.905 12.52 14.0007 12.2827 14 12C13.9993 11.7173 13.9033 11.48 13.712 11.288C13.5207 11.096 13.2833 11 13 11H7C6.71667 11 6.47933 11.096 6.288 11.288C6.09667 11.48 6.00067 11.7173 6 12C5.99933 12.2827 6.09533 12.5203 6.288 12.713C6.48067 12.9057 6.718 13.0013 7 13ZM7 10H17C17.2833 10 17.521 9.904 17.713 9.712C17.905 9.52 18.0007 9.28267 18 9C17.9993 8.71733 17.9033 8.48 17.712 8.288C17.5207 8.096 17.2833 8 17 8H7C6.71667 8 6.47933 8.096 6.288 8.288C6.09667 8.48 6.00067 8.71733 6 9C5.99933 9.28267 6.09533 9.52033 6.288 9.713C6.48067 9.90567 6.718 10.0013 7 10ZM7 7H17C17.2833 7 17.521 6.904 17.713 6.712C17.905 6.52 18.0007 6.28267 18 6C17.9993 5.71733 17.9033 5.48 17.712 5.288C17.5207 5.096 17.2833 5 17 5H7C6.71667 5 6.47933 5.096 6.288 5.288C6.09667 5.48 6.00067 5.71733 6 6C5.99933 6.28267 6.09533 6.52033 6.288 6.713C6.48067 6.90567 6.718 7.00133 7 7Z" fill="white"/>
</svg>
