<svg width="19" height="15" viewBox="0 0 19 15" fill="none" xmlns="http://www.w3.org/2000/svg">
<path d="M1.05556 15C0.756485 15 0.505967 14.88 0.304004 14.64C0.102041 14.4 0.000707343 14.1033 3.63984e-06 13.75C-0.000700064 13.3967 0.100633 13.1 0.304004 12.86C0.507374 12.62 0.757892 12.5 1.05556 12.5H17.9444C18.2435 12.5 18.4944 12.62 18.6971 12.86C18.8997 13.1 19.0007 13.3967 19 13.75C18.9993 14.1033 18.898 14.4004 18.696 14.6412C18.494 14.8821 18.2435 15.0016 17.9444 15H1.05556ZM1.05556 8.74999C0.756485 8.74999 0.505967 8.62999 0.304004 8.38999C0.102041 8.14999 0.000707343 7.85332 3.63984e-06 7.49999C-0.000700064 7.14666 0.100633 6.84999 0.304004 6.60999C0.507374 6.36999 0.757892 6.24999 1.05556 6.24999H17.9444C18.2435 6.24999 18.4944 6.36999 18.6971 6.60999C18.8997 6.84999 19.0007 7.14666 19 7.49999C18.9993 7.85332 18.898 8.15041 18.696 8.39124C18.494 8.63207 18.2435 8.75166 17.9444 8.74999H1.05556ZM1.05556 2.5C0.756485 2.5 0.505967 2.38 0.304004 2.14C0.102041 1.9 0.000707343 1.60333 3.63984e-06 1.25C-0.000700064 0.896666 0.100633 0.599999 0.304004 0.36C0.507374 0.12 0.757892 0 1.05556 0H17.9444C18.2435 0 18.4944 0.12 18.6971 0.36C18.8997 0.599999 19.0007 0.896666 19 1.25C18.9993 1.60333 18.898 1.90041 18.696 2.14125C18.494 2.38208 18.2435 2.50166 17.9444 2.5H1.05556Z" fill="white"/>
</svg>
