<svg width="24" height="24" viewBox="0 0 24 24" fill="none" xmlns="http://www.w3.org/2000/svg">
<path d="M4.21994 11.29L11.2899 4.22C12.4166 3.09578 13.9433 2.46442 15.5349 2.46442C17.1266 2.46442 18.6532 3.09578 19.7799 4.22C22.1199 6.56 22.1199 10.36 19.7799 12.71L12.7099 19.78C10.3599 22.12 6.55994 22.12 4.21994 19.78C3.09572 18.6533 2.46436 17.1266 2.46436 15.535C2.46436 13.9434 3.09572 12.4167 4.21994 11.29ZM5.63994 12.71C5.14153 13.2045 4.7828 13.822 4.60014 14.5C4.41749 15.1779 4.41742 15.892 4.59994 16.57L10.5899 10.59L14.8299 14.83L18.3599 11.29C18.7327 10.92 19.0286 10.4799 19.2305 9.99509C19.4325 9.51024 19.5364 8.99021 19.5364 8.465C19.5364 7.93978 19.4325 7.41976 19.2305 6.93491C19.0286 6.45006 18.7327 6.00996 18.3599 5.64C17.99 5.2672 17.5499 4.97132 17.065 4.7694C16.5802 4.56748 16.0602 4.46353 15.5349 4.46353C15.0097 4.46353 14.4897 4.56748 14.0048 4.7694C13.52 4.97132 13.0799 5.2672 12.7099 5.64L5.63994 12.71Z" fill="white"/>
</svg>
