<svg width="26" height="24" viewBox="0 0 26 24" fill="none" xmlns="http://www.w3.org/2000/svg">
<path d="M24.9791 20.5C24.9791 20.3674 24.9265 20.2402 24.8327 20.1464C24.7389 20.0527 24.6117 20 24.4791 20H22.7291C22.6628 20 22.5992 19.9737 22.5524 19.9268C22.5055 19.8799 22.4791 19.8163 22.4791 19.75V15.5C22.4791 15.2348 22.3738 14.9804 22.1862 14.7929C21.9987 14.6054 21.7444 14.5 21.4791 14.5C21.2139 14.5 20.9596 14.6054 20.772 14.7929C20.5845 14.9804 20.4791 15.2348 20.4791 15.5V19.75C20.4791 19.8163 20.4528 19.8799 20.4059 19.9268C20.359 19.9737 20.2954 20 20.2291 20H5.72914C5.66284 20 5.59925 19.9737 5.55236 19.9268C5.50548 19.8799 5.47914 19.8163 5.47914 19.75V9.17C5.47914 8.99231 5.54973 8.82189 5.67538 8.69624C5.80103 8.57059 5.97145 8.5 6.14914 8.5H8.47914C8.74436 8.5 8.99871 8.39464 9.18625 8.20711C9.37378 8.01957 9.47914 7.76522 9.47914 7.5C9.47914 7.23478 9.37378 6.98043 9.18625 6.79289C8.99871 6.60536 8.74436 6.5 8.47914 6.5H6.14914C5.44182 6.50263 4.76423 6.78478 4.26408 7.28494C3.76392 7.78509 3.48178 8.46268 3.47914 9.17V19.75C3.47914 19.8163 3.4528 19.8799 3.40592 19.9268C3.35903 19.9737 3.29545 20 3.22914 20H1.47914C1.34653 20 1.21936 20.0527 1.12559 20.1464C1.03182 20.2402 0.979141 20.3674 0.979141 20.5C0.979141 21.4283 1.34789 22.3185 2.00427 22.9749C2.66064 23.6313 3.55088 24 4.47914 24H21.4791C22.4074 24 23.2976 23.6313 23.954 22.9749C24.6104 22.3185 24.9791 21.4283 24.9791 20.5Z" fill="white"/>
<path d="M11.4791 14C11.5519 13.9988 11.6236 13.9818 11.6891 13.95L15.0791 12.34C15.1151 12.3231 15.1544 12.3143 15.1941 12.3143C15.2339 12.3143 15.2732 12.3231 15.3091 12.34C16.1897 12.8194 17.1682 13.091 18.1699 13.1339C19.1716 13.1767 20.1698 12.9898 21.088 12.5874C22.0063 12.1849 22.8203 11.5777 23.4677 10.8121C24.115 10.0466 24.5786 9.143 24.8229 8.17063C25.0671 7.19826 25.0856 6.18288 24.8769 5.20225C24.6682 4.22163 24.2379 3.30178 23.6188 2.51315C22.9998 1.72452 22.2084 1.08802 21.3054 0.652415C20.4024 0.216808 19.4117 -0.00635761 18.4091 1.04807e-05C17.5532 0.00116513 16.7061 0.172929 15.9173 0.505262C15.1286 0.837594 14.414 1.32383 13.8153 1.93554C13.2166 2.54725 12.7459 3.27217 12.4306 4.06791C12.1153 4.86365 11.9619 5.71426 11.9791 6.57001C11.948 7.64126 12.1744 8.70433 12.6391 9.67001C12.6561 9.70598 12.6648 9.74525 12.6648 9.78501C12.6648 9.82477 12.6561 9.86404 12.6391 9.90001L11.0291 13.29C10.9855 13.3822 10.9716 13.4856 10.9895 13.586C11.0075 13.6864 11.0563 13.7787 11.1291 13.85C11.1738 13.898 11.228 13.9362 11.2883 13.962C11.3485 13.9879 11.4136 14.0008 11.4791 14ZM20.7291 5.25001C20.7291 5.84675 20.4921 6.41904 20.0701 6.841C19.6482 7.26296 19.0759 7.50001 18.4791 7.50001C18.2802 7.50001 18.0895 7.42099 17.9488 7.28034C17.8082 7.13969 17.7291 6.94892 17.7291 6.75001C17.7291 6.5511 17.8082 6.36033 17.9488 6.21968C18.0895 6.07903 18.2802 6.00001 18.4791 6.00001C18.6275 6.00001 18.7725 5.95602 18.8958 5.87361C19.0191 5.7912 19.1153 5.67407 19.172 5.53702C19.2288 5.39998 19.2437 5.24918 19.2147 5.10369C19.1858 4.95821 19.1144 4.82457 19.0095 4.71968C18.9046 4.61479 18.7709 4.54336 18.6255 4.51442C18.48 4.48548 18.3292 4.50034 18.1921 4.5571C18.0551 4.61387 17.9379 4.71 17.8555 4.83333C17.7731 4.95667 17.7291 5.10167 17.7291 5.25001C17.7291 5.44892 17.6501 5.63969 17.5095 5.78034C17.3688 5.92099 17.178 6.00001 16.9791 6.00001C16.7802 6.00001 16.5895 5.92099 16.4488 5.78034C16.3082 5.63969 16.2291 5.44892 16.2291 5.25001C16.2291 4.65327 16.4662 4.08098 16.8881 3.65902C17.3101 3.23706 17.8824 3.00001 18.4791 3.00001C19.0759 3.00001 19.6482 3.23706 20.0701 3.65902C20.4921 4.08098 20.7291 4.65327 20.7291 5.25001ZM18.4791 10C18.3308 10 18.1858 9.95602 18.0625 9.87361C17.9391 9.7912 17.843 9.67407 17.7862 9.53702C17.7295 9.39998 17.7146 9.24918 17.7435 9.10369C17.7725 8.95821 17.8439 8.82457 17.9488 8.71968C18.0537 8.61479 18.1873 8.54336 18.3328 8.51442C18.4783 8.48548 18.6291 8.50034 18.7661 8.5571C18.9032 8.61387 19.0203 8.71 19.1027 8.83333C19.1851 8.95667 19.2291 9.10167 19.2291 9.25001C19.2265 9.44812 19.1467 9.63738 19.0066 9.77748C18.8665 9.91757 18.6772 9.99742 18.4791 10Z" fill="white"/>
</svg>
